<svg xmlns="http://www.w3.org/2000/svg" data-name="Layer 1" viewBox="0 0 32 40" x="0px" y="0px"><title>icon instagram</title><path d="M16,7.35A6.3,6.3,0,0,0,12.21,6.1h0A6.36,6.36,0,0,0,7.73,17L16,25.23l8.26-8.3A6.36,6.36,0,0,0,16,7.35Zm6.89,8.17L16,22.4,9.14,15.55A4.35,4.35,0,0,1,12.2,8.1h0a4.32,4.32,0,0,1,3.07,1.27L16,10.08l0.71-.71a4.37,4.37,0,0,1,6.17,0A4.36,4.36,0,0,1,22.87,15.52Z"/><path d="M28.09,0.66H3.91A2.91,2.91,0,0,0,1,3.57V24.82a2.91,2.91,0,0,0,2.91,2.9h9.62l0.86,1.57a1.84,1.84,0,0,0,3.23,0l0.86-1.57h9.62A2.91,2.91,0,0,0,31,24.82V3.57A2.91,2.91,0,0,0,28.09.66ZM29,24.82a0.91,0.91,0,0,1-.91.9H17.29L16,28.07l-1.29-2.35H3.91A0.91,0.91,0,0,1,3,24.82V3.57a0.91,0.91,0,0,1,.91-0.91H28.09a0.91,0.91,0,0,1,.91.91V24.82Z"/><text x="0" y="47" fill="#000000" font-size="5px" font-weight="bold" font-family="'Helvetica Neue', Helvetica, Arial-Unicode, Arial, Sans-serif">Created by nico bayu saputro</text><text x="0" y="52" fill="#000000" font-size="5px" font-weight="bold" font-family="'Helvetica Neue', Helvetica, Arial-Unicode, Arial, Sans-serif">from the Noun Project</text></svg>